<svg xmlns="http://www.w3.org/2000/svg" version="1.1" xmlns:xlink="http://www.w3.org/1999/xlink" xmlns:svgjs="http://svgjs.dev/svgjs" width="128" height="128" viewBox="0 0 128 128"><g transform="matrix(0.8046875,0,0,0.8046875,12.221578124999994,12.197631794423074)"><svg viewBox="0 0 96 96" data-background-color="#acacbe" preserveAspectRatio="xMidYMid meet" height="128" width="128" xmlns="http://www.w3.org/2000/svg" xmlns:xlink="http://www.w3.org/1999/xlink"><g id="tight-bounds" transform="matrix(1,0,0,1,0.25950000000000273,0.2818189100522801)"><svg viewBox="0 0 95.481 95.43636217989543" height="95.43636217989543" width="95.481"><g><svg viewBox="0 0 95.481 95.43636217989543" height="95.43636217989543" width="95.481"><g><svg viewBox="0 0 95.481 95.43636217989543" height="95.43636217989543" width="95.481"><g id="textblocktransform"><svg viewBox="0 0 95.481 95.43636217989543" height="95.43636217989543" width="95.481" id="textblock"><g><svg viewBox="0 0 95.481 95.43636217989543" height="95.43636217989543" width="95.481"><g><svg viewBox="0 0 95.481 95.43636217989543" height="95.43636217989543" width="95.481"><g><svg xmlns="http://www.w3.org/2000/svg" xmlns:xlink="http://www.w3.org/1999/xlink" version="1.1" x="0" y="0" viewBox="0.7607695154586737 0.7749999999999999 30.439230484541326 30.425" enable-background="new 0 0 32 32" xml:space="preserve" height="95.43636217989543" width="95.481" class="icon-icon-0" data-fill-palette-color="accent" id="icon-0"><g fill="#d12456" data-fill-palette-color="accent"><g fill="#d12456" data-fill-palette-color="accent"><path fill="#d12456" d="M1.5 31.2C1.3 31.2 1.1 31.1 1 31 0.8 30.8 0.7 30.6 0.8 30.3L4.5 11.2C4.6 10.9 4.8 10.6 5.1 10.6L14.7 9.3C14.9 9.3 15.2 9.3 15.3 9.5L22.5 16.7C22.7 16.9 22.7 17.1 22.7 17.3L21.4 26.9C21.4 27.2 21.1 27.5 20.8 27.5L1.6 31.2zM5.8 12.1L2.4 29.6 19.9 26.2 21.1 17.5 14.4 10.8z" data-fill-palette-color="accent"></path></g><g fill="#d12456" data-fill-palette-color="accent"><rect x="5.2" y="19.8" transform="matrix(-0.7071 -0.7071 0.7071 -0.7071 -8.3465 48.7211)" fill="#d12456" width="1.5" height="12.6" data-fill-palette-color="accent"></rect></g><g fill="#d12456" data-fill-palette-color="accent"><path fill="#d12456" d="M12 23.1C11.2 23.1 10.4 22.8 9.8 22.2S8.9 20.9 8.9 20C8.9 19.2 9.2 18.4 9.8 17.8 11 16.6 13 16.6 14.1 17.8 15.3 19 15.3 20.9 14.1 22.1 13.6 22.8 12.8 23.1 12 23.1M12 18.4C11.6 18.4 11.2 18.6 10.9 18.9S10.4 19.6 10.4 20 10.6 20.8 10.9 21.1C11.5 21.7 12.5 21.7 13.1 21.1S13.7 19.5 13.1 18.9C12.8 18.6 12.4 18.4 12 18.4" data-fill-palette-color="accent"></path></g><g fill="#d12456" data-fill-palette-color="accent"><path fill="#d12456" d="M23.8 18.7C22.9 18.7 22 18.3 21.4 17.7L14.3 10.6C13 9.3 13 7.1 14.3 5.8L19.1 1C19.4 0.7 19.9 0.7 20.2 1L31 11.8C31.1 11.9 31.2 12.1 31.2 12.3S31.1 12.7 31 12.8L26.1 17.7C25.5 18.4 24.7 18.7 23.8 18.7M19.7 2.6L15.4 6.9C14.7 7.6 14.7 8.9 15.4 9.6L22.5 16.7C23.2 17.4 24.5 17.4 25.2 16.7L29.5 12.4z" data-fill-palette-color="accent"></path></g></g></svg></g></svg></g></svg></g></svg></g></svg></g></svg></g><defs></defs></svg><rect width="95.481" height="95.43636217989543" fill="none" stroke="none" visibility="hidden"></rect></g></svg></g></svg>